<svg width="99" height="40" viewBox="0 0 99 40" fill="none" xmlns="http://www.w3.org/2000/svg">
<path d="M18.555 19.54C19.195 19.67 19.71 19.975 20.1 20.455C20.5 20.935 20.7 21.495 20.7 22.135C20.7 23.015 20.405 23.715 19.815 24.235C19.225 24.745 18.37 25 17.25 25H13.035V14.41H17.175C18.235 14.41 19.045 14.65 19.605 15.13C20.175 15.6 20.46 16.25 20.46 17.08C20.46 17.75 20.285 18.295 19.935 18.715C19.585 19.125 19.125 19.4 18.555 19.54ZM14.745 18.97H16.86C17.46 18.97 17.915 18.83 18.225 18.55C18.545 18.27 18.705 17.88 18.705 17.38C18.705 16.89 18.545 16.505 18.225 16.225C17.915 15.945 17.44 15.805 16.8 15.805H14.745V18.97ZM16.905 23.59C17.555 23.59 18.055 23.445 18.405 23.155C18.765 22.855 18.945 22.44 18.945 21.91C18.945 21.38 18.765 20.965 18.405 20.665C18.045 20.365 17.54 20.215 16.89 20.215H14.745V23.59H16.905ZM26.0875 16.63C26.8875 16.63 27.6075 16.8 28.2475 17.14C28.8875 17.48 29.3875 17.97 29.7475 18.61C30.1075 19.25 30.2875 20 30.2875 20.86C30.2875 21.73 30.1075 22.485 29.7475 23.125C29.3875 23.765 28.8875 24.255 28.2475 24.595C27.6075 24.935 26.8875 25.105 26.0875 25.105C25.2875 25.105 24.5675 24.935 23.9275 24.595C23.2975 24.255 22.7975 23.765 22.4275 23.125C22.0675 22.475 21.8875 21.72 21.8875 20.86C21.8875 20 22.0675 19.25 22.4275 18.61C22.7975 17.97 23.2975 17.48 23.9275 17.14C24.5675 16.8 25.2875 16.63 26.0875 16.63ZM26.0875 18.115C25.6475 18.115 25.2425 18.215 24.8725 18.415C24.5025 18.615 24.2025 18.925 23.9725 19.345C23.7525 19.755 23.6425 20.26 23.6425 20.86C23.6425 21.47 23.7525 21.98 23.9725 22.39C24.2025 22.8 24.5025 23.105 24.8725 23.305C25.2425 23.505 25.6475 23.605 26.0875 23.605C26.5275 23.605 26.9325 23.505 27.3025 23.305C27.6725 23.105 27.9675 22.8 28.1875 22.39C28.4175 21.98 28.5325 21.47 28.5325 20.86C28.5325 20.26 28.4175 19.755 28.1875 19.345C27.9675 18.925 27.6725 18.615 27.3025 18.415C26.9325 18.215 26.5275 18.115 26.0875 18.115ZM35.7115 16.63C36.5115 16.63 37.2315 16.8 37.8715 17.14C38.5115 17.48 39.0115 17.97 39.3715 18.61C39.7315 19.25 39.9115 20 39.9115 20.86C39.9115 21.73 39.7315 22.485 39.3715 23.125C39.0115 23.765 38.5115 24.255 37.8715 24.595C37.2315 24.935 36.5115 25.105 35.7115 25.105C34.9115 25.105 34.1915 24.935 33.5515 24.595C32.9215 24.255 32.4215 23.765 32.0515 23.125C31.6915 22.475 31.5115 21.72 31.5115 20.86C31.5115 20 31.6915 19.25 32.0515 18.61C32.4215 17.97 32.9215 17.48 33.5515 17.14C34.1915 16.8 34.9115 16.63 35.7115 16.63ZM35.7115 18.115C35.2715 18.115 34.8665 18.215 34.4965 18.415C34.1265 18.615 33.8265 18.925 33.5965 19.345C33.3765 19.755 33.2665 20.26 33.2665 20.86C33.2665 21.47 33.3765 21.98 33.5965 22.39C33.8265 22.8 34.1265 23.105 34.4965 23.305C34.8665 23.505 35.2715 23.605 35.7115 23.605C36.1515 23.605 36.5565 23.505 36.9265 23.305C37.2965 23.105 37.5915 22.8 37.8115 22.39C38.0415 21.98 38.1565 21.47 38.1565 20.86C38.1565 20.26 38.0415 19.755 37.8115 19.345C37.5915 18.925 37.2965 18.615 36.9265 18.415C36.5565 18.215 36.1515 18.115 35.7115 18.115ZM45.7105 23.515V25H44.6605C43.7805 25 43.1105 24.79 42.6505 24.37C42.2005 23.94 41.9755 23.23 41.9755 22.24V18.19H40.7905V16.735H41.9755V14.68H43.7005V16.735H45.6955V18.19H43.7005V22.27C43.7005 22.74 43.7855 23.065 43.9555 23.245C44.1355 23.425 44.4455 23.515 44.8855 23.515H45.7105ZM50.0273 16.63C50.9973 16.63 51.7723 16.88 52.3523 17.38C52.9423 17.87 53.3023 18.53 53.4323 19.36H51.8123C51.7423 18.91 51.5473 18.55 51.2273 18.28C50.9173 18 50.5023 17.86 49.9823 17.86C49.5523 17.86 49.2173 17.965 48.9773 18.175C48.7473 18.375 48.6323 18.65 48.6323 19C48.6323 19.26 48.7173 19.47 48.8873 19.63C49.0573 19.79 49.2673 19.915 49.5173 20.005C49.7773 20.095 50.1423 20.195 50.6123 20.305C51.2323 20.445 51.7323 20.59 52.1123 20.74C52.5023 20.89 52.8323 21.13 53.1023 21.46C53.3823 21.78 53.5223 22.22 53.5223 22.78C53.5223 23.47 53.2573 24.03 52.7273 24.46C52.2073 24.89 51.5023 25.105 50.6123 25.105C49.5823 25.105 48.7473 24.865 48.1073 24.385C47.4773 23.905 47.0973 23.235 46.9673 22.375H48.6323C48.6823 22.825 48.8823 23.19 49.2323 23.47C49.5823 23.75 50.0423 23.89 50.6123 23.89C51.0223 23.89 51.3423 23.785 51.5723 23.575C51.8123 23.355 51.9323 23.08 51.9323 22.75C51.9323 22.46 51.8423 22.23 51.6623 22.06C51.4823 21.89 51.2573 21.76 50.9873 21.67C50.7173 21.57 50.3473 21.47 49.8773 21.37C49.2773 21.23 48.7873 21.09 48.4073 20.95C48.0373 20.81 47.7173 20.585 47.4473 20.275C47.1873 19.955 47.0573 19.525 47.0573 18.985C47.0573 18.285 47.3173 17.72 47.8373 17.29C48.3673 16.85 49.0973 16.63 50.0273 16.63ZM59.3921 23.515V25H58.3421C57.4621 25 56.7921 24.79 56.3321 24.37C55.8821 23.94 55.6571 23.23 55.6571 22.24V18.19H54.4721V16.735H55.6571V14.68H57.3821V16.735H59.3771V18.19H57.3821V22.27C57.3821 22.74 57.4671 23.065 57.6371 23.245C57.8171 23.425 58.1271 23.515 58.5671 23.515H59.3921ZM62.704 18.355C62.984 17.815 63.384 17.39 63.904 17.08C64.424 16.76 65.024 16.6 65.704 16.6V18.46H65.194C64.444 18.46 63.839 18.645 63.379 19.015C62.929 19.375 62.704 19.975 62.704 20.815V25H60.994V16.735H62.704V18.355ZM70.3002 16.63C71.0502 16.63 71.6902 16.815 72.2202 17.185C72.7502 17.555 73.1252 18.045 73.3452 18.655V16.735H75.0552V25H73.3452V23.08C73.1252 23.69 72.7502 24.18 72.2202 24.55C71.6902 24.92 71.0502 25.105 70.3002 25.105C69.5802 25.105 68.9352 24.935 68.3652 24.595C67.8052 24.255 67.3652 23.765 67.0452 23.125C66.7252 22.485 66.5652 21.73 66.5652 20.86C66.5652 20 66.7252 19.25 67.0452 18.61C67.3652 17.97 67.8052 17.48 68.3652 17.14C68.9352 16.8 69.5802 16.63 70.3002 16.63ZM70.8252 18.13C70.0652 18.13 69.4552 18.375 68.9952 18.865C68.5452 19.345 68.3202 20.01 68.3202 20.86C68.3202 21.71 68.5452 22.38 68.9952 22.87C69.4552 23.35 70.0652 23.59 70.8252 23.59C71.3052 23.59 71.7352 23.48 72.1152 23.26C72.4952 23.03 72.7952 22.71 73.0152 22.3C73.2352 21.89 73.3452 21.41 73.3452 20.86C73.3452 20.32 73.2352 19.845 73.0152 19.435C72.7952 19.015 72.4952 18.695 72.1152 18.475C71.7352 18.245 71.3052 18.13 70.8252 18.13ZM81.8473 16.63C82.5673 16.63 83.2073 16.8 83.7673 17.14C84.3373 17.48 84.7823 17.97 85.1023 18.61C85.4223 19.25 85.5823 20 85.5823 20.86C85.5823 21.73 85.4223 22.485 85.1023 23.125C84.7823 23.765 84.3373 24.255 83.7673 24.595C83.2073 24.935 82.5673 25.105 81.8473 25.105C81.0973 25.105 80.4573 24.92 79.9273 24.55C79.3973 24.18 79.0273 23.69 78.8173 23.08V28.93H77.1073V16.735H78.8173V18.655C79.0273 18.045 79.3973 17.555 79.9273 17.185C80.4573 16.815 81.0973 16.63 81.8473 16.63ZM81.3223 18.13C80.8423 18.13 80.4123 18.245 80.0323 18.475C79.6523 18.695 79.3523 19.015 79.1323 19.435C78.9123 19.845 78.8023 20.32 78.8023 20.86C78.8023 21.41 78.9123 21.89 79.1323 22.3C79.3523 22.71 79.6523 23.03 80.0323 23.26C80.4123 23.48 80.8423 23.59 81.3223 23.59C82.0823 23.59 82.6923 23.35 83.1523 22.87C83.6123 22.38 83.8423 21.71 83.8423 20.86C83.8423 20.02 83.6123 19.355 83.1523 18.865C82.6923 18.375 82.0823 18.13 81.3223 18.13Z" fill="#3C3A39"/>
<rect x="0.5" y="0.5" width="98" height="39" stroke="#979493"/>
</svg>
