<svg width="59" height="40" viewBox="0 0 59 40" fill="none" xmlns="http://www.w3.org/2000/svg">
<path d="M17.655 16.6C18.615 16.6 19.385 16.91 19.965 17.53C20.545 18.15 20.835 19.035 20.835 20.185V25H19.125V20.365C19.125 19.625 18.935 19.055 18.555 18.655C18.175 18.245 17.655 18.04 16.995 18.04C16.315 18.04 15.77 18.26 15.36 18.7C14.95 19.13 14.745 19.765 14.745 20.605V25H13.035V13.9H14.745V18.55C14.965 17.93 15.335 17.45 15.855 17.11C16.375 16.77 16.975 16.6 17.655 16.6ZM26.9898 23.515V25H25.9398C25.0598 25 24.3898 24.79 23.9298 24.37C23.4798 23.94 23.2548 23.23 23.2548 22.24V18.19H22.0698V16.735H23.2548V14.68H24.9798V16.735H26.9748V18.19H24.9798V22.27C24.9798 22.74 25.0648 23.065 25.2348 23.245C25.4148 23.425 25.7248 23.515 26.1648 23.515H26.9898ZM38.9266 16.6C39.9066 16.6 40.6866 16.91 41.2666 17.53C41.8566 18.15 42.1516 19.035 42.1516 20.185V25H40.4416V20.365C40.4416 19.645 40.2616 19.09 39.9016 18.7C39.5416 18.3 39.0466 18.1 38.4166 18.1C37.7466 18.1 37.2116 18.315 36.8116 18.745C36.4216 19.165 36.2266 19.785 36.2266 20.605V25H34.5166V20.365C34.5166 19.645 34.3366 19.09 33.9766 18.7C33.6166 18.3 33.1216 18.1 32.4916 18.1C31.8216 18.1 31.2866 18.315 30.8866 18.745C30.4966 19.165 30.3016 19.785 30.3016 20.605V25H28.5916V16.735H30.3016V18.46C30.5116 17.86 30.8616 17.4 31.3516 17.08C31.8416 16.76 32.4166 16.6 33.0766 16.6C33.7666 16.6 34.3616 16.77 34.8616 17.11C35.3716 17.45 35.7416 17.94 35.9716 18.58C36.2116 17.96 36.5966 17.475 37.1266 17.125C37.6566 16.775 38.2566 16.6 38.9266 16.6ZM45.8583 13.9V25H44.1483V13.9H45.8583Z" fill="#3C3A39"/>
<rect x="0.5" y="0.5" width="58" height="39" stroke="#979493"/>
</svg>
