<svg width="1134" height="52" viewBox="0 0 1134 52" fill="none" xmlns="http://www.w3.org/2000/svg">
<g clip-path="url(#clip0_34_1425)">
<path d="M19.54 40H16.9C16.5 40 16.22 39.8133 16.06 39.44L8.3 19.72V36.84H10.82C11.22 36.84 11.42 37.04 11.42 37.44V39.4C11.42 39.8 11.22 40 10.82 40H2.7C2.3 40 2.1 39.8 2.1 39.4V37.44C2.1 37.04 2.3 36.84 2.7 36.84H4.82V16.08H2.7C2.3 16.08 2.1 15.88 2.1 15.48V13.44C2.1 13.04 2.3 12.84 2.7 12.84H9.7C10.1267 12.84 10.3933 13.0267 10.5 13.4L18.74 34.88L27.18 13.4C27.2867 13.0267 27.5533 12.84 27.98 12.84H34.66C35.06 12.84 35.26 13.04 35.26 13.44V15.48C35.26 15.88 35.06 16.08 34.66 16.08H32.54V36.84H34.66C35.06 36.84 35.26 37.04 35.26 37.44V39.4C35.26 39.8 35.06 40 34.66 40H25.86C25.46 40 25.26 39.8 25.26 39.4V37.44C25.26 37.04 25.46 36.84 25.86 36.84H28.26V19.76L20.38 39.44C20.22 39.8133 19.94 40 19.54 40ZM43.4672 20.76L48.1472 35.32L52.3072 23.48H50.2672C49.8672 23.48 49.6672 23.28 49.6672 22.88V20.8C49.6672 20.4 49.8672 20.2 50.2672 20.2H56.1072C56.4272 20.2 56.6405 20.2933 56.7472 20.48C56.8539 20.6667 56.9072 20.84 56.9072 21C56.9072 21.1333 56.8805 21.2667 56.8272 21.4L48.2672 43.76C47.8672 44.7733 47.5205 45.5467 47.2272 46.08C46.9605 46.64 46.5739 47.2267 46.0672 47.84C45.0805 49.0133 43.6272 49.6 41.7072 49.6C39.7872 49.6 38.2139 49.3067 36.9872 48.72C36.7739 48.6133 36.6672 48.48 36.6672 48.32C36.6672 48.16 36.6805 48.04 36.7072 47.96L37.3872 46C37.4939 45.6533 37.7472 45.5333 38.1472 45.64C39.4272 46.0667 40.4672 46.28 41.2672 46.28C42.0939 46.28 42.7205 46.0667 43.1472 45.64C43.6005 45.24 44.0672 44.3867 44.5472 43.08L45.5472 40.44L39.4672 23.48H37.4672C37.0672 23.48 36.8672 23.28 36.8672 22.88V20.8C36.8672 20.4 37.0672 20.2 37.4672 20.2H42.7072C43.1072 20.2 43.3605 20.3867 43.4672 20.76ZM67.2172 39.4V37.44C67.2172 37.04 67.4172 36.84 67.8172 36.84H69.8972V16.04H67.8172C67.4172 16.04 67.2172 15.84 67.2172 15.44V13.44C67.2172 13.04 67.4172 12.84 67.8172 12.84C71.2305 12.68 74.0705 12.6 76.3372 12.6C83.2705 12.6 86.7372 15.08 86.7372 20.04C86.7372 21.7733 86.2972 23.3067 85.4172 24.64C84.5372 25.9467 83.3639 26.9467 81.8972 27.64L86.5772 36.84H89.0572C89.4572 36.84 89.6572 37.04 89.6572 37.44V39.4C89.6572 39.8 89.4572 40 89.0572 40H83.7772C83.3772 40 83.0839 39.8267 82.8972 39.48L77.4572 28.72H76.6572C75.8039 28.72 75.0439 28.68 74.3772 28.6V36.84H76.8972C77.2972 36.84 77.4972 37.04 77.4972 37.44V39.4C77.4972 39.8 77.2972 40 76.8972 40H67.8172C67.4172 40 67.2172 39.8 67.2172 39.4ZM74.3772 15.92V25.56C74.5905 25.5867 74.8972 25.6 75.2972 25.6C77.4572 25.6 79.1372 25.1733 80.3372 24.32C81.5372 23.4667 82.1372 22.1867 82.1372 20.48C82.1372 17.44 80.0305 15.92 75.8172 15.92H74.3772ZM100.866 40.48C97.6923 40.48 95.359 39.56 93.8656 37.72C92.399 35.8533 91.6656 33.4 91.6656 30.36C91.6656 27.2933 92.4523 24.76 94.0256 22.76C95.599 20.76 97.8656 19.76 100.826 19.76C102.292 19.76 103.546 20.04 104.586 20.6C105.652 21.1333 106.466 21.8667 107.026 22.8C108.092 24.6133 108.626 26.7067 108.626 29.08C108.626 30.2 108.572 30.8133 108.466 30.92C108.359 31.0267 108.159 31.08 107.866 31.08H96.1056C96.239 33 96.7056 34.4933 97.5056 35.56C98.3323 36.6 99.7456 37.12 101.746 37.12C103.212 37.12 104.719 36.7733 106.266 36.08C106.639 35.8933 106.906 36 107.066 36.4L107.826 38.24C107.959 38.56 107.839 38.8267 107.466 39.04C105.706 40 103.506 40.48 100.866 40.48ZM96.1056 28.12H104.426C104.479 24.7867 103.172 23.12 100.506 23.12C98.9323 23.12 97.8123 23.6267 97.1456 24.64C96.5056 25.6267 96.159 26.7867 96.1056 28.12ZM115.796 29.84C115.796 34.6933 117.676 37.12 121.436 37.12C122.636 37.12 124.036 36.76 125.636 36.04C126.036 35.88 126.316 36 126.476 36.4L127.196 38.16C127.329 38.5333 127.223 38.8133 126.876 39C125.249 39.9867 123.196 40.48 120.716 40.48C117.489 40.48 115.103 39.5733 113.556 37.76C112.009 35.92 111.236 33.44 111.236 30.32C111.236 27.1733 112.023 24.6267 113.596 22.68C115.196 20.7333 117.569 19.76 120.716 19.76C123.116 19.76 124.889 20.4133 126.036 21.72C127.183 23.0267 127.756 24.6933 127.756 26.72C127.756 27.0667 127.529 27.24 127.076 27.24H124.676C124.249 27.24 124.023 27.04 123.996 26.64C123.863 24.2933 122.676 23.12 120.436 23.12C118.836 23.12 117.663 23.68 116.916 24.8C116.169 25.8933 115.796 27.5733 115.796 29.84ZM139.147 40.48C135.974 40.48 133.64 39.56 132.147 37.72C130.68 35.8533 129.947 33.4 129.947 30.36C129.947 27.2933 130.734 24.76 132.307 22.76C133.88 20.76 136.147 19.76 139.107 19.76C140.574 19.76 141.827 20.04 142.867 20.6C143.934 21.1333 144.747 21.8667 145.307 22.8C146.374 24.6133 146.907 26.7067 146.907 29.08C146.907 30.2 146.854 30.8133 146.747 30.92C146.64 31.0267 146.44 31.08 146.147 31.08H134.387C134.52 33 134.987 34.4933 135.787 35.56C136.614 36.6 138.027 37.12 140.027 37.12C141.494 37.12 143 36.7733 144.547 36.08C144.92 35.8933 145.187 36 145.347 36.4L146.107 38.24C146.24 38.56 146.12 38.8267 145.747 39.04C143.987 40 141.787 40.48 139.147 40.48ZM134.387 28.12H142.707C142.76 24.7867 141.454 23.12 138.787 23.12C137.214 23.12 136.094 23.6267 135.427 24.64C134.787 25.6267 134.44 26.7867 134.387 28.12ZM149.117 22.92V20.8C149.117 20.4 149.317 20.2 149.717 20.2H155.157C155.504 20.2 155.717 20.4 155.797 20.8L156.157 23.12C157.651 20.88 159.784 19.76 162.557 19.76C166.691 19.76 168.757 22.0267 168.757 26.56V36.84H171.077C171.477 36.84 171.677 37.04 171.677 37.44V39.4C171.677 39.8 171.477 40 171.077 40H162.357C161.957 40 161.757 39.8 161.757 39.4V37.44C161.757 37.04 161.957 36.84 162.357 36.84H164.277V28.56C164.277 26.88 164.064 25.6533 163.637 24.88C163.211 24.1067 162.331 23.72 160.997 23.72C159.664 23.72 158.557 24.12 157.677 24.92C156.797 25.72 156.357 26.6267 156.357 27.64V36.84H158.837C159.237 36.84 159.437 37.04 159.437 37.44V39.4C159.437 39.8 159.237 40 158.837 40H149.757C149.357 40 149.157 39.8 149.157 39.4V37.44C149.157 37.04 149.357 36.84 149.757 36.84H151.877V23.48H149.717C149.317 23.48 149.117 23.2933 149.117 22.92ZM180.218 23.48V33.56C180.218 34.8133 180.378 35.72 180.698 36.28C181.018 36.84 181.618 37.12 182.498 37.12C183.378 37.12 184.231 36.9333 185.058 36.56C185.351 36.4533 185.564 36.56 185.698 36.88L186.418 38.72C186.444 38.8 186.458 38.92 186.458 39.08C186.458 39.2133 186.324 39.36 186.058 39.52C184.778 40.16 183.258 40.48 181.498 40.48C179.124 40.48 177.564 39.8667 176.818 38.64C176.284 37.84 175.978 37.0667 175.898 36.32C175.791 35.3067 175.738 34.24 175.738 33.12V23.48H173.458C173.058 23.48 172.858 23.28 172.858 22.88V20.8C172.858 20.4 173.058 20.2 173.458 20.2H175.738V14.8C175.738 14.4 175.938 14.2 176.338 14.2H179.618C180.018 14.2 180.218 14.4 180.218 14.8V20.2H184.258C184.658 20.2 184.858 20.4 184.858 20.8V22.88C184.858 23.28 184.658 23.48 184.258 23.48H180.218ZM203.671 39.4L197.911 16.08H195.831C195.431 16.08 195.231 15.88 195.231 15.48V13.44C195.231 13.04 195.431 12.84 195.831 12.84H205.831C206.231 12.84 206.431 13.04 206.431 13.44V15.48C206.431 15.88 206.231 16.08 205.831 16.08H202.991L207.271 34.68L213.111 13.4C213.218 13.0267 213.471 12.84 213.871 12.84H217.151C217.551 12.84 217.805 13.0267 217.911 13.4L223.711 34.8L228.311 16.08H225.671C225.271 16.08 225.071 15.88 225.071 15.48V13.44C225.071 13.04 225.271 12.84 225.671 12.84H234.111C234.511 12.84 234.711 13.04 234.711 13.44V15.48C234.711 15.88 234.511 16.08 234.111 16.08H231.991L225.831 39.4C225.725 39.8 225.471 40 225.071 40H221.311C220.911 40 220.658 39.8133 220.551 39.44L214.951 19.52L209.591 39.44C209.485 39.8133 209.231 40 208.831 40H204.431C204.031 40 203.778 39.8 203.671 39.4ZM236.314 30.4C236.314 28.4 236.621 26.6667 237.234 25.2C237.847 23.7333 238.647 22.6267 239.634 21.88C241.527 20.4667 243.581 19.76 245.794 19.76C247.421 19.76 248.794 20.0133 249.914 20.52C251.034 21.0267 251.901 21.6133 252.514 22.28C253.154 22.9467 253.687 23.9067 254.114 25.16C254.567 26.4133 254.794 27.88 254.794 29.56C254.794 33.1333 253.887 35.8533 252.074 37.72C250.287 39.56 247.994 40.48 245.194 40.48C242.394 40.48 240.207 39.64 238.634 37.96C237.087 36.2533 236.314 33.7333 236.314 30.4ZM245.514 37.2C247.114 37.2 248.274 36.6133 248.994 35.44C249.741 34.24 250.114 32.4667 250.114 30.12C250.114 27.7733 249.741 26.0133 248.994 24.84C248.274 23.64 247.087 23.04 245.434 23.04C242.367 23.04 240.834 25.2 240.834 29.52C240.834 34.64 242.394 37.2 245.514 37.2ZM264.203 23.64C264.656 22.5733 265.39 21.6667 266.403 20.92C267.416 20.1467 268.523 19.76 269.723 19.76C270.923 19.76 271.843 19.8667 272.483 20.08C272.803 20.1867 272.963 20.4267 272.963 20.8V26.2C272.963 26.6 272.763 26.8 272.363 26.8H269.763C269.363 26.8 269.176 26.6 269.203 26.2L269.363 23.88C269.23 23.8533 269.003 23.84 268.683 23.84C267.456 23.84 266.443 24.3467 265.643 25.36C264.843 26.3467 264.443 27.68 264.443 29.36V36.84H268.843C269.243 36.84 269.443 37.04 269.443 37.44V39.4C269.443 39.8 269.243 40 268.843 40H257.843C257.443 40 257.243 39.8 257.243 39.4V37.44C257.243 37.04 257.443 36.84 257.843 36.84H259.963V23.48H257.803C257.403 23.48 257.203 23.28 257.203 22.88V20.8C257.203 20.4 257.403 20.2 257.803 20.2H263.083C263.456 20.2 263.683 20.4 263.763 20.8L264.203 23.64ZM282.49 10.76V26.72H284.53L290.73 20.64C291.023 20.3467 291.37 20.2 291.77 20.2H294.89C295.29 20.2 295.49 20.4 295.49 20.8V22.88C295.49 23.28 295.29 23.48 294.89 23.48H292.45L288.05 27.76L293.53 36.84H295.89C296.29 36.84 296.49 37.04 296.49 37.44V39.4C296.49 39.8 296.29 40 295.89 40H290.73C290.357 40 290.05 39.8267 289.81 39.48L283.81 29.8H282.49V36.84H284.61C285.01 36.84 285.21 37.04 285.21 37.44V39.4C285.21 39.8 285.01 40 284.61 40H275.89C275.49 40 275.29 39.8 275.29 39.4V37.44C275.29 37.04 275.49 36.84 275.89 36.84H278.01V13.4H275.85C275.45 13.4 275.25 13.2 275.25 12.8V10.76C275.25 10.36 275.45 10.16 275.85 10.16H281.89C282.29 10.16 282.49 10.36 282.49 10.76ZM299.146 25.92C299.146 24.16 299.826 22.6933 301.186 21.52C302.546 20.3467 304.266 19.76 306.346 19.76C308.426 19.76 310.226 20 311.746 20.48C312.12 20.5867 312.306 20.8267 312.306 21.2V25.44C312.306 25.84 312.106 26.04 311.706 26.04H309.386C308.96 26.04 308.786 25.84 308.866 25.44L309.066 23.4C308.266 22.9733 307.386 22.76 306.426 22.76C304.293 22.76 303.226 23.5067 303.226 25C303.226 25.7733 303.573 26.3867 304.266 26.84C304.96 27.2933 305.8 27.6667 306.786 27.96C307.773 28.2267 308.76 28.5467 309.746 28.92C310.76 29.2667 311.613 29.88 312.306 30.76C313 31.6133 313.346 32.7067 313.346 34.04C313.346 36.0667 312.64 37.6533 311.226 38.8C309.813 39.92 307.826 40.48 305.266 40.48C303.48 40.48 301.6 40.2133 299.626 39.68C299.28 39.5733 299.106 39.32 299.106 38.92V34.68C299.106 34.28 299.306 34.08 299.706 34.08H302.026C302.426 34.08 302.613 34.28 302.586 34.68L302.466 36.76C303.186 37.2933 304.213 37.56 305.546 37.56C307.92 37.56 309.106 36.72 309.106 35.04C309.106 34.1867 308.76 33.52 308.066 33.04C307.4 32.5333 306.573 32.1467 305.586 31.88C304.626 31.6133 303.653 31.32 302.666 31C301.68 30.6533 300.84 30.0667 300.146 29.24C299.48 28.3867 299.146 27.28 299.146 25.92Z" fill="#091E42"/>
<path d="M1133.5 26.0001L339.5 26" stroke="#212121"/>
</g>
<defs>
<clipPath id="clip0_34_1425">
<rect width="1133" height="52" fill="white" transform="translate(0.5)"/>
</clipPath>
</defs>
</svg>
